<svg xmlns="http://www.w3.org/2000/svg" width="512" height="512" viewBox="0 0 512 512" version="1.1"><path d="M 291.856 15.039 C 277.780 16.682, 261.670 23.140, 249.135 32.163 C 246.036 34.394, 216.698 63.058, 183.940 95.860 C 151.181 128.662, 118.177 161.350, 110.596 168.500 C 96.717 181.590, 58.747 221.137, 51.716 229.825 C 42.135 241.664, 36.348 252.422, 32.409 265.712 C 30.249 272.999, 29.788 276.635, 29.709 287 C 29.626 297.918, 29.975 300.765, 32.467 309.500 C 39.886 335.500, 55.325 353.686, 80.791 366.421 C 87.777 369.914, 90 370.231, 90 367.735 C 90 367.104, 91.526 361.843, 93.390 356.044 C 95.255 350.245, 97.784 342.125, 99.010 338 C 100.237 333.875, 102.489 326.675, 104.014 322 C 105.539 317.325, 108.601 307.650, 110.818 300.500 C 113.035 293.350, 117.536 278.950, 120.820 268.500 C 124.104 258.050, 128.457 244.100, 130.494 237.500 C 136.192 219.034, 137.681 215.892, 143.357 210.348 C 148.607 205.221, 155.813 201.489, 164 199.657 C 166.475 199.103, 180.313 198.616, 194.750 198.575 C 209.188 198.534, 221 198.389, 221 198.254 C 221 198.119, 208.512 185.649, 193.250 170.544 L 165.500 143.080 175.581 132.790 C 222.137 85.266, 254.453 53.073, 259.390 49.303 C 266.390 43.956, 276.219 38.918, 284.500 36.431 C 293.075 33.855, 315.142 33.849, 323.500 36.419 C 348.211 44.019, 366.738 61.322, 374.730 84.267 C 376.785 90.168, 377.337 93.986, 377.725 105 C 378.287 120.940, 376.976 127.999, 371.153 140.392 C 366.823 149.609, 363.686 153.236, 335.319 181.822 L 316.500 200.787 246 201.405 C 158.802 202.170, 155.020 202.594, 145.899 212.637 C 141.861 217.082, 137.452 225.768, 135.054 234 C 133.852 238.125, 132.277 243.075, 131.553 245 C 130.830 246.925, 129.235 251.875, 128.009 256 C 126.782 260.125, 124.537 267.325, 123.018 272 C 121.500 276.675, 118.806 285.225, 117.032 291 C 110.618 311.879, 102.917 336.554, 102.051 339 C 101.564 340.375, 99.736 346.225, 97.989 352 C 96.242 357.775, 93.729 365.772, 92.406 369.771 C 91.083 373.770, 90 377.504, 90 378.069 C 90 378.634, 89.100 380.959, 88 383.236 C 82.678 394.251, 88.301 408.831, 100 414.354 C 104.441 416.450, 105.548 416.485, 184.837 416.989 L 265.174 417.500 260.738 420.823 C 248.378 430.081, 241 444.574, 241 459.593 C 241 473.304, 247.733 484.345, 260.187 491.056 C 266.278 494.338, 266.887 494.458, 277.500 494.451 C 287.229 494.445, 289.243 494.130, 294.933 491.718 C 315.114 483.164, 328 465.096, 328 445.354 C 328 436.452, 325.771 430.028, 320.057 422.459 C 315.496 416.419, 315.186 416.962, 324 415.558 C 329.761 414.640, 339.665 409.394, 344.925 404.474 C 348.284 401.331, 351.120 397.247, 353.806 391.679 C 357.594 383.830, 359.127 379.506, 363.974 363 C 365.186 358.875, 366.794 353.700, 367.548 351.500 C 368.302 349.300, 369.352 345.925, 369.880 344 C 370.970 340.029, 379.524 311.808, 383.520 299 C 384.979 294.325, 386.632 288.925, 387.194 287 C 394.950 260.423, 401.355 240.108, 402.554 238.277 C 404.016 236.046, 404.415 236, 422.157 236 C 446.373 236, 451.286 234.488, 456.616 225.392 C 458.824 221.625, 459.168 220.043, 458.785 215.425 C 458.408 210.873, 457.755 209.342, 454.959 206.458 C 453.106 204.545, 449.994 202.537, 448.044 201.996 C 445.937 201.410, 424.233 201.009, 394.514 201.006 L 344.529 201 357.090 188.250 C 369.298 175.858, 377.387 166.733, 381.767 160.410 C 385.732 154.687, 391.772 141.564, 394.612 132.500 C 397.199 124.244, 397.432 122.218, 397.427 108 C 397.421 94.921, 397.066 91.251, 395.153 84.500 C 384.514 46.970, 352.717 19.201, 315.650 15.067 C 305.112 13.892, 301.710 13.888, 291.856 15.039 M 242.844 244.707 C 239.215 245.264, 238.905 247.090, 239.002 267.333 C 239.048 276.775, 239.066 285.063, 239.042 285.750 C 239.010 286.710, 234.020 287, 217.545 287 L 196.091 287 195.397 290.697 C 194.636 294.751, 195.671 326.006, 196.596 326.927 C 196.913 327.242, 206.511 327.343, 217.927 327.152 L 238.682 326.804 239.341 339.059 C 239.703 345.799, 240 355.068, 240 359.657 L 240 368 251.750 368.236 C 273.913 368.681, 277.189 368.456, 278.752 366.384 C 279.872 364.900, 280.122 361.001, 279.931 348 C 279.797 338.925, 279.758 330.497, 279.844 329.270 C 279.999 327.050, 280.088 327.039, 300.750 326.770 L 321.500 326.500 321.771 306.750 C 322.022 288.461, 321.911 286.989, 320.271 286.855 C 319.297 286.775, 310.121 286.826, 299.880 286.969 C 289.376 287.116, 281.013 286.830, 280.694 286.314 C 280.383 285.810, 279.904 276.662, 279.631 265.985 C 279.196 248.969, 278.917 246.413, 277.376 245.286 C 276.104 244.356, 271.454 244.041, 260.559 244.150 C 252.276 244.232, 244.305 244.483, 242.844 244.707 M 420.567 268.946 C 413.508 273.600, 413.235 280.201, 419.809 287.250 L 422.374 290 454.500 290 L 486.626 290 489.249 287.250 C 493.643 282.644, 494.323 279.519, 492.050 274.379 C 488.870 267.192, 487.856 266.999, 453.282 267.007 C 425.527 267.013, 423.300 267.145, 420.567 268.946 M 406 317.704 C 405.175 318.004, 403.262 319.403, 401.750 320.812 C 399.404 322.997, 399 324.170, 399 328.787 C 399 333.610, 399.371 334.571, 402.400 337.600 L 405.800 341 434.032 341 L 462.264 341 465.632 337.429 C 468.317 334.582, 469 333.034, 469 329.797 C 469 324.610, 465.867 319.498, 461.824 318.088 C 458.632 316.976, 408.942 316.633, 406 317.704 M 121.305 435.438 C 100.748 445.009, 93.907 470.753, 108.138 484.984 C 112.813 489.660, 115.029 490.868, 121.006 492.001 C 143.697 496.304, 165.177 472.311, 158.668 449.931 C 156.858 443.710, 150.878 437.084, 144.782 434.547 C 138.869 432.086, 127.584 432.515, 121.305 435.438" stroke="none" fill="#152d44" fill-rule="evenodd"/></svg>